<?xml version="1.0" encoding="UTF-8" standalone="no"?><!DOCTYPE svg PUBLIC "-//W3C//DTD SVG 1.1//EN" "http://www.w3.org/Graphics/SVG/1.1/DTD/svg11.dtd"><svg width="100%" height="100%" viewBox="0 0 276 276" version="1.1" xmlns="http://www.w3.org/2000/svg" xmlns:xlink="http://www.w3.org/1999/xlink" xml:space="preserve" xmlns:serif="http://www.serif.com/" style="fill-rule:evenodd;clip-rule:evenodd;stroke-linecap:round;stroke-linejoin:round;stroke-miterlimit:1.5;"><circle cx="137.833" cy="137.833" r="135" style="fill:#e2e2e2;"/><clipPath id="_clip1"><circle cx="137.833" cy="137.833" r="135"/></clipPath><g clip-path="url(#_clip1)"><g id="dude"><path d="M171.91,207.845l-7.479,-3.448l0,-23.776l-48,0l0,23.776l-7.51,3.241l2,67.426l5.51,0l0,10.337l48,0l0,-10.337l5.479,0l2,-67.219Z" style="fill:#bf8958;fill-rule:nonzero;"/><path d="M116.431,192.301l-0.012,-0.003l0,-7.708c0.004,0.002 0.008,0.005 0.012,0.008l0,7.703Z" style="fill:#7d7889;fill-rule:nonzero;"/><path d="M164.419,202.378l-47.988,-10.077l0,-7.703c8.261,5.735 17.068,9.22 24.099,9.22c6.971,0 15.689,-3.427 23.889,-9.075l0,17.635Z" style="fill:#a66036;fill-rule:nonzero;"/><path d="M242.644,243.908c-8.8,-19.181 -33.5,-23.92 -68.9,-36.101c-1.26,-0.439 -2.54,-0.879 -3.82,-1.339l-0.04,0.199c-2.332,13.182 -8.949,30.245 -29.465,32.248c-20.515,-2.003 -27.133,-19.066 -29.465,-32.248l-0.04,-0.199c-1.279,0.46 -2.559,0.9 -3.819,1.339c-35.4,12.181 -60.101,16.92 -68.9,36.101c-11.025,24.437 20.64,49.839 20.64,49.839c0,0 2.86,153.561 7.639,153.561l147.89,0c4.78,0 7.64,-153.561 7.64,-153.561c0,0 31.665,-25.402 20.64,-49.839Z" style="fill:#5f98de;fill-rule:nonzero;"/><path d="M151.968,234.698l-4.608,8.825l-14.022,0l-4.477,-8.825l11.554,-9.444l11.553,9.444Z" style="fill:#a03224;fill-rule:nonzero;"/><path d="M140.414,225.256l-14.761,15.541l-28.712,-29.491l19.222,-8.467l5.926,5.483l18.325,16.934Z" style="fill:#3574bf;fill-rule:nonzero;"/><path d="M140.416,225.256l14.761,15.541l28.712,-29.491l-19.223,-8.467l-5.925,5.483l-18.325,16.934Z" style="fill:#3574bf;fill-rule:nonzero;"/><path d="M147.36,245.632l5.707,183.758l-12.652,13.986l-12.653,-13.986l5.576,-183.758l14.022,0Z" style="fill:#a03224;fill-rule:nonzero;"/><path d="M277.836,338.113c-0.197,0 -0.395,-0.003 -0.592,-0.01c-5.223,-0.172 -10.113,-2.605 -13.4,-6.667l-74.409,-66.066c0,0 38.404,-37.913 44.394,-32.965c5.991,4.948 44.911,54.211 44.911,54.211l51.055,-48.091l26.437,24.435l-65.177,69.37c-3.413,3.693 -8.207,5.783 -13.219,5.783Z" style="fill:#6696cf;fill-rule:nonzero;"/><path d="M54.762,367.527c-12.312,0 -47.024,1.846 -57.402,-6.601c-7.291,-5.938 -22.518,-25.268 -6.483,-57.911c13.32,-27.118 36.392,-51.857 56.732,-71.055l34.454,40.162c-18.875,17.819 -35.133,27.026 -52.873,46.766c-5.371,5.975 -3.235,8.011 -3.102,8.119c2.84,2.312 29.985,1.027 41.231,0.123l2.883,39.885c-3.715,0.297 -11.559,0.512 -15.44,0.512Z" style="fill:#6696cf;fill-rule:nonzero;"/><path d="M192.905,112.939l1.625,-21.121c0,-27.62 -26.4,-50 -54,-50c-27.62,0 -54,22.38 -54,50l1.623,21.1c-1.545,0.373 -2.939,1.082 -4.103,2.079c-2.161,1.841 -3.52,4.56 -3.52,7.62l0,10.4c0,5.499 4.428,9.96 9.938,9.994c0,26.082 31.339,50.807 50.062,50.807c18.723,0 50.062,-24.722 50.062,-50.804c5.489,-0.038 9.929,-4.494 9.929,-9.992l0,-10.401c0,-4.696 -3.25,-8.609 -7.616,-9.682Z" style="fill:#bf8958;fill-rule:nonzero;"/><path d="M190.571,144.16c0.001,-0.008 0.001,-0.015 0.001,-0.023c0,0.008 0,0.015 -0.001,0.023Zm0.005,-0.153c0.003,-0.095 0.006,-0.189 0.008,-0.284c-0.002,0.095 -0.005,0.189 -0.008,0.284Zm0.01,-0.413c0.002,-0.081 0.003,-0.166 0.004,-0.248c-0.001,0.082 -0.002,0.167 -0.004,0.248Z" style="fill:#898ca7;"/><path d="M140.521,193.817l0,-42.999l-12.001,0c0,0 4.706,-22.486 12.001,-38.001l0.009,-70.999c27.6,0 54,22.38 54,50l-1.625,21.121c4.366,1.073 7.616,4.986 7.616,9.682l0,10.401c0,5.498 -4.44,9.954 -9.929,9.992c0,0.112 -0.001,0.221 -0.002,0.332c-0.001,0.082 -0.002,0.167 -0.004,0.248c0,0.043 -0.001,0.086 -0.002,0.129c-0.002,0.095 -0.005,0.189 -0.008,0.284c-0.001,0.043 -0.002,0.087 -0.004,0.13c0,0.008 0,0.015 -0.001,0.023c-0.895,25.652 -31.585,49.652 -50.05,49.657Zm23.005,-82.858c-0.093,0 -0.187,0.002 -0.281,0.005c-4.359,0.152 -7.77,3.81 -7.617,8.169c0.149,4.266 3.653,7.623 7.888,7.623c0.094,0 0.187,-0.001 0.281,-0.005c4.36,-0.152 7.771,-3.81 7.618,-8.169c-0.149,-4.266 -3.654,-7.623 -7.889,-7.623Z" style="fill:#b77143;fill-rule:nonzero;"/><path d="M117.516,126.756c-4.235,0 -7.74,-3.357 -7.889,-7.623c-0.152,-4.359 3.259,-8.017 7.618,-8.169c0.094,-0.003 0.188,-0.005 0.281,-0.005c4.236,0 7.74,3.357 7.889,7.623c0.152,4.359 -3.258,8.017 -7.618,8.169c-0.094,0.004 -0.188,0.005 -0.281,0.005Z" style="fill:#a66036;fill-rule:nonzero;"/><path d="M125.415,116.582c0.152,4.359 -3.258,8.017 -7.618,8.169c-4.36,0.153 -8.017,-3.258 -8.17,-7.618c-0.152,-4.359 3.259,-8.017 7.618,-8.169c4.36,-0.153 8.018,3.258 8.17,7.618Z" style="fill:#3b2417;fill-rule:nonzero;"/><path d="M122.176,114.324c0.038,1.09 -0.814,2.004 -1.904,2.042c-1.09,0.039 -2.005,-0.814 -2.043,-1.904c-0.038,-1.09 0.815,-2.005 1.905,-2.043c1.09,-0.038 2.004,0.815 2.042,1.905Z" style="fill:#fff;fill-rule:nonzero;"/><path d="M163.516,126.756c-4.235,0 -7.739,-3.357 -7.888,-7.623c-0.153,-4.359 3.258,-8.017 7.617,-8.169c0.094,-0.003 0.188,-0.005 0.281,-0.005c4.235,0 7.74,3.357 7.889,7.623c0.153,4.359 -3.258,8.017 -7.618,8.169c-0.094,0.004 -0.187,0.005 -0.281,0.005Z" style="fill:#9f5029;fill-rule:nonzero;"/><path d="M171.415,116.582c0.153,4.359 -3.258,8.017 -7.618,8.169c-4.36,0.153 -8.017,-3.258 -8.169,-7.618c-0.153,-4.359 3.258,-8.017 7.617,-8.169c4.36,-0.153 8.018,3.258 8.17,7.618Z" style="fill:#3b2417;fill-rule:nonzero;"/><path d="M168.176,114.324c0.038,1.09 -0.814,2.004 -1.904,2.042c-1.09,0.039 -2.005,-0.814 -2.043,-1.904c-0.038,-1.09 0.815,-2.005 1.905,-2.043c1.09,-0.038 2.005,0.815 2.042,1.905Z" style="fill:#fff;fill-rule:nonzero;"/><path d="M201.542,60.544c0,-5.636 -4.189,-10.282 -9.62,-11.025c-0.636,-3.658 -2.898,-6.754 -6.023,-8.513c0.037,-0.401 0.061,-0.805 0.061,-1.216c0,-7.315 -5.93,-13.246 -13.245,-13.246c-1.261,0 -2.476,0.188 -3.631,0.516c-2.554,-3.602 -6.748,-5.96 -11.5,-5.96c-2.576,0 -4.984,0.702 -7.062,1.909c-2.247,-1.728 -5.052,-2.767 -8.106,-2.767c-3.271,0 -6.262,1.183 -8.58,3.138c-1.962,-1.287 -4.303,-2.042 -6.824,-2.042c-4.653,0 -8.667,2.578 -10.801,6.361c-1.38,-0.719 -2.925,-1.163 -4.589,-1.163c-5.192,0 -9.411,3.972 -9.902,9.036c-0.158,0.221 -0.329,0.432 -0.473,0.663c-4.886,0.795 -8.799,4.454 -9.965,9.206c-0.296,-0.024 -0.593,-0.046 -0.895,-0.046c-6.125,0 -11.09,4.966 -11.09,11.09c0,2.877 1.105,5.489 2.901,7.46c-2.415,15.769 -0.772,43.628 2.129,56.197c0.525,2.277 3.856,1.94 3.944,-0.395c0.567,-14.993 4.051,-43.635 19.139,-41.441c14.407,2.097 25.089,2.809 33.12,2.749c8.03,0.06 18.713,-0.652 33.12,-2.749c15.087,-2.194 18.571,26.448 19.138,41.441c0.088,2.335 3.419,2.672 3.945,0.395c2.708,-11.735 4.317,-36.79 2.553,-52.898c1.41,-1.865 2.256,-4.181 2.256,-6.7Z" style="fill:#3b2417;fill-rule:nonzero;"/></g></g><circle cx="137.833" cy="137.833" r="135" style="fill:none;stroke:#616d85;stroke-opacity:0;stroke-width:5.67px;"/></svg>